<?xml version="1.0" encoding="UTF-8" standalone="no"?>
<svg
   xmlns:dc="http://purl.org/dc/elements/1.1/"
   xmlns:cc="http://creativecommons.org/ns#"
   xmlns:rdf="http://www.w3.org/1999/02/22-rdf-syntax-ns#"
   xmlns:svg="http://www.w3.org/2000/svg"
   xmlns="http://www.w3.org/2000/svg"
   version="1.1"
   id="svg8"
   viewBox="0 0 105.83333 105.83334"
   height="400"
   width="400">
  <metadata
     id="metadata920">
    <rdf:RDF>
      <cc:Work
         rdf:about="">
        <dc:format>image/svg+xml</dc:format>
        <dc:type
           rdf:resource="http://purl.org/dc/dcmitype/StillImage" />
        <dc:title></dc:title>
      </cc:Work>
    </rdf:RDF>
  </metadata>
  <defs
     id="defs918">
    <filter
       id="filter1622"
       style="color-interpolation-filters:sRGB;">
      <feColorMatrix
         id="feColorMatrix1618"
         result="color1"
         values="180"
         type="hueRotate" />
      <feColorMatrix
         id="feColorMatrix1620"
         result="color2"
         values="1 0 0 0 0 0 1 0 0 0 0 0 1 0 0 -0.21 -0.72 -0.07 1 0 " />
    </filter>
  </defs>
  <g
     style="filter:url(#filter1622)"
     id="g1485"
     transform="matrix(0.80149538,0,0,-0.80149538,-58.049967,298.95758)">
    <path
       id="path56"
       style="fill:#001c54;fill-opacity:1;fill-rule:nonzero;stroke:none"
       d="m 131.7422,343.3467 c 2.027,0 3.67,-1.643 3.67,-3.67 0,-2.027 -1.643,-3.671 -3.67,-3.671 -2.027,0 -3.67,1.644 -3.67,3.671 0,2.027 1.643,3.67 3.67,3.67" />
    <path
       id="path60"
       style="fill:#001c54;fill-opacity:1;fill-rule:nonzero;stroke:none"
       d="m 145.2847,343.3467 c 2.027,0 3.67,-1.643 3.67,-3.67 0,-2.027 -1.643,-3.671 -3.67,-3.671 -2.027,0 -3.67,1.644 -3.67,3.671 0,2.027 1.643,3.67 3.67,3.67" />
    <path
       id="path68"
       style="fill:#001c54;fill-opacity:1;fill-rule:nonzero;stroke:none"
       d="m 123.7686,304.4907 c -1.139,0 -2.025,-0.886 -2.025,-2.025 v -11.77 c 0,-1.14 0.886,-2.025 2.025,-2.025 1.139,0 2.025,0.885 2.025,2.025 v 11.77 c 0,1.139 -1.013,2.025 -2.025,2.025" />
    <path
       id="path72"
       style="fill:#001c54;fill-opacity:1;fill-rule:nonzero;stroke:none"
       d="m 133.6406,304.4907 c -1.139,0 -2.025,-0.886 -2.025,-2.025 v -11.77 c 0,-1.14 0.886,-2.025 2.025,-2.025 1.139,0 2.025,0.885 2.025,2.025 v 11.77 c -0.127,1.139 -1.013,2.025 -2.025,2.025" />
    <path
       id="path76"
       style="fill:#001c54;fill-opacity:1;fill-rule:nonzero;stroke:none"
       d="m 141.4878,302.5923 v -11.771 c 0,-1.139 0.886,-2.024 2.025,-2.024 1.139,0 2.025,0.885 2.025,2.024 v 11.771 c 0,1.139 -0.886,2.025 -2.025,2.025 -1.139,-0.127 -2.025,-1.012 -2.025,-2.025" />
    <path
       id="path80"
       style="fill:#001c54;fill-opacity:1;fill-rule:nonzero;stroke:none"
       d="m 153.2583,288.7969 c 1.139,0 2.025,0.886 2.025,2.025 v 11.77 c 0,1.14 -0.886,2.026 -2.025,2.026 -1.139,0 -2.025,-0.886 -2.025,-2.026 v -11.77 c 0.127,-1.139 1.012,-2.025 2.025,-2.025" />
    <g
       id="g938">
      <path
         d="m 164.2695,276.7729 h -5.316 -10.125 -20.63 -10.126 -5.316 v 37.97 h 20.251 11.138 20.25 v -37.97 z m -13.542,-4.05 h 6.202 v -8.227 h -6.202 z m 11.644,-12.151 v -5.821 h -8.607 c -1.139,0 -2.025,-0.887 -2.025,-2.025 0,-1.14 0.886,-2.026 2.025,-2.026 h 8.607 v -5.822 h -17.087 v 15.694 h 3.544 10.125 z m -21.011,1.899 v -17.593 h -5.569 v 17.593 c 0,1.139 -0.885,2.025 -2.024,2.025 h -3.544 v 8.227 h 16.58 v -8.227 h -3.544 c -1.012,0 -1.899,-0.886 -1.899,-2.025 m -21.262,10.252 h 6.202 v -8.227 h -6.202 z m 11.644,-27.718 h -17.087 v 15.567 h 3.544 10.125 3.544 z m 10.378,73.788 h -7.214 v 6.582 h 7.214 z m -18.099,10.505 v 9.239 0.254 0.253 9.239 h 28.983 v -18.985 h -8.859 -11.138 z m 60.372,-48.981 v 15.441 c 0,0.253 0,0.38 -0.126,0.506 -0.887,8.354 -7.595,15.062 -16.075,15.695 v 4.682 c 0,1.139 -0.885,2.026 -2.025,2.026 h -20.25 v 6.581 h 8.859 c 1.139,0 2.026,0.886 2.026,2.025 v 9.492 h 9.239 c 1.139,0 2.025,0.886 2.025,2.026 0,1.139 -0.886,2.024 -2.025,2.024 h -9.239 v 9.493 c 0,1.139 -0.887,2.025 -2.026,2.025 h -32.907 c -1.139,0 -2.025,-0.886 -2.025,-2.025 v -9.493 h -9.239 c -1.139,0 -2.025,-0.885 -2.025,-2.024 0,-1.14 0.886,-2.026 2.025,-2.026 h 9.239 v -9.492 c 0,-1.139 0.886,-2.025 2.025,-2.025 h 8.86 v -6.581 h -20.251 c -1.139,0 -2.025,-0.887 -2.025,-2.026 v -4.682 c -8.353,-0.76 -14.934,-7.468 -15.821,-15.695 0,-0.126 -0.126,-0.38 -0.126,-0.506 v -15.568 c -4.936,-0.886 -8.607,-5.315 -8.607,-10.378 0,-1.139 0.887,-2.025 2.025,-2.025 1.139,0 2.026,0.886 2.026,2.025 0,3.67 3.037,6.581 6.581,6.581 3.671,0 6.581,-3.037 6.581,-6.581 0,-1.139 0.886,-2.025 2.026,-2.025 1.139,0 2.025,0.886 2.025,2.025 0,5.189 -3.671,9.492 -8.607,10.378 v 14.429 c 0,6.961 5.189,12.656 11.897,13.542 v -33.286 c 0,-1.14 0.886,-2.025 2.025,-2.025 h 5.696 v -8.227 h -3.544 c -1.139,0 -2.025,-0.886 -2.025,-2.025 v -17.593 h -7.088 c -1.139,0 -2.025,-0.886 -2.025,-2.025 0,-1.139 0.886,-2.025 2.025,-2.025 h 9.113 21.137 9.619 21.136 9.113 c 1.139,0 2.025,0.886 2.025,2.025 0,1.139 -0.886,2.025 -2.025,2.025 h -7.215 v 17.466 c 0,1.139 -0.885,2.025 -2.025,2.025 h -3.543 v 8.227 h 5.315 c 1.14,0 2.025,0.886 2.025,2.025 v 33.287 c 6.835,-0.76 12.151,-6.582 12.151,-13.543 v -14.302 c -4.936,-0.886 -8.607,-5.315 -8.607,-10.378 0,-1.139 0.887,-2.025 2.025,-2.025 1.139,0 2.026,0.886 2.026,2.025 0,3.67 3.037,6.581 6.581,6.581 3.671,0 6.581,-3.037 6.581,-6.581 0,-1.139 0.886,-2.025 2.026,-2.025 1.139,0 2.024,0.886 2.024,2.025 0,5.189 -3.67,9.492 -8.606,10.505"
         style="fill:#001c54;fill-opacity:1;fill-rule:nonzero;stroke:none"
         id="path64" />
      <path
         d="m 109.5225,351.999 h 3.816 v -0.545 c 0,-0.188 -0.118,-0.273 -0.273,-0.273 h -3.27 c -0.155,0 -0.273,0.085 -0.273,0.273 z m 0,1.908 h 1.908 1.908 v -0.818 h -3.816 z m 2.181,6.271 c 0.332,-0.003 1.061,-0.145 1.269,-0.316 0.104,-0.085 0.12,-0.077 0.093,-0.23 -0.02,-0.114 -0.168,-0.37 -0.417,-0.681 -0.494,0.224 -0.951,0.448 -1.294,0.656 0.003,0.024 0.003,0.062 0.008,0.085 0.043,0.223 0.112,0.361 0.162,0.417 0.049,0.057 0.06,0.069 0.179,0.069 m -1.091,7.905 h 0.818 0.818 c 2.292,0 4.905,-2.084 4.905,-4.907 0,-1.48 -0.204,-2.422 -0.57,-3.143 -0.366,-0.722 -0.908,-1.258 -1.678,-1.883 -0.018,-0.013 -0.035,-0.027 -0.051,-0.043 -0.966,-0.982 -1.357,-1.997 -1.465,-3.109 h -1.337 c -0.082,0.271 -0.452,1.526 -0.639,2.811 -0.029,0.198 -0.034,0.379 -0.051,0.571 0.383,-0.203 0.725,-0.406 1.218,-0.613 0.207,-0.089 0.447,-0.042 0.605,0.119 0.552,0.568 0.866,1.055 0.953,1.559 0.088,0.504 -0.154,0.996 -0.476,1.261 -0.646,0.529 -1.479,0.559 -1.959,0.562 -0.388,0.002 -0.762,-0.174 -0.997,-0.443 -0.138,-0.158 -0.229,-0.332 -0.298,-0.52 -0.047,0.045 -0.139,0.103 -0.179,0.145 -0.434,0.464 -0.47,0.752 -0.426,0.997 0.045,0.245 0.234,0.501 0.435,0.69 0.1,0.095 0.198,0.168 0.272,0.221 0.037,0.027 0.069,0.044 0.094,0.06 0.012,0.008 0.019,0.015 0.034,0.026 0.008,0.005 0.015,0.01 0.034,0.025 0.01,0.008 0.026,0.018 0.051,0.043 0.013,0.012 0.026,0.034 0.051,0.068 0.026,0.034 0.102,0.221 0.102,0.222 0.062,0.294 -0.127,0.583 -0.422,0.644 -0.043,0.01 -0.087,0.013 -0.131,0.011 -0.138,-0.005 -0.269,-0.063 -0.366,-0.161 -0.024,-0.016 -0.045,-0.028 -0.077,-0.051 -0.103,-0.074 -0.244,-0.176 -0.392,-0.316 -0.296,-0.279 -0.651,-0.699 -0.758,-1.286 -0.106,-0.588 0.098,-1.292 0.699,-1.934 0.2,-0.214 0.516,-0.425 0.809,-0.639 -0.003,-0.46 0.023,-0.941 0.094,-1.423 0.156,-1.073 0.428,-2.095 0.587,-2.649 h -1.448 c -0.108,1.112 -0.499,2.127 -1.465,3.109 -0.016,0.016 -0.033,0.03 -0.051,0.043 -0.77,0.625 -1.312,1.161 -1.678,1.883 -0.365,0.721 -0.57,1.663 -0.57,3.143 0,2.823 2.614,4.907 4.905,4.907 m 0,1.091 c -2.932,0 -5.996,-2.52 -5.996,-5.998 0,-1.584 0.225,-2.72 0.69,-3.637 0.455,-0.897 1.127,-1.553 1.917,-2.198 0.948,-0.965 1.187,-1.714 1.209,-2.846 0,-0.014 0,-0.028 0,-0.042 v -0.009 c -0.001,-0.017 -0.001,-0.034 0,-0.051 v -2.939 c 0,-0.767 0.642,-1.364 1.363,-1.364 h 0.102 c 0.234,-0.625 0.851,-1.09 1.533,-1.09 0.682,0 1.299,0.465 1.533,1.09 h 0.102 c 0.721,0 1.363,0.597 1.363,1.364 v 2.956 0.034 c 0,0.003 0,0.006 0,0.009 0.001,0.017 0.001,0.033 0,0.05 0.023,1.127 0.263,1.876 1.209,2.838 0.79,0.645 1.462,1.301 1.917,2.198 0.465,0.917 0.69,2.053 0.69,3.637 0,3.478 -3.064,5.998 -5.996,5.998 h -0.818 z m 8.713,0.826 c -0.142,-0.005 -0.277,-0.066 -0.374,-0.17 l -1.636,-1.636 c -0.234,-0.189 -0.271,-0.532 -0.082,-0.766 0.189,-0.235 0.532,-0.272 0.767,-0.083 0.03,0.025 0.058,0.052 0.082,0.083 l 1.635,1.635 c 0.217,0.21 0.222,0.555 0.013,0.771 -0.106,0.11 -0.252,0.17 -0.405,0.166 m -15.859,0 c -0.299,-0.029 -0.518,-0.295 -0.489,-0.595 0.012,-0.13 0.071,-0.251 0.166,-0.342 l 1.635,-1.635 c 0.189,-0.235 0.532,-0.272 0.767,-0.083 0.234,0.189 0.271,0.532 0.082,0.767 -0.024,0.03 -0.052,0.058 -0.082,0.082 l -1.635,1.636 c -0.102,0.108 -0.244,0.169 -0.392,0.17 -0.017,10e-4 -0.035,10e-4 -0.052,0 m 7.905,2.999 c -0.282,-0.03 -0.492,-0.271 -0.486,-0.553 v -2.181 c -0.004,-0.302 0.236,-0.549 0.537,-0.553 0.301,-0.005 0.549,0.236 0.553,0.537 v 0.016 2.181 c 0.005,0.301 -0.235,0.549 -0.536,0.553 h -0.018 c -0.017,10e-4 -0.034,10e-4 -0.05,0"
         style="fill:#ffd200;fill-opacity:1;fill-rule:nonzero;stroke:none"
         id="path386" />
    </g>
  </g>
</svg>
