<?xml version="1.0" encoding="UTF-8" standalone="no"?>
<svg
   xmlns:dc="http://purl.org/dc/elements/1.1/"
   xmlns:cc="http://creativecommons.org/ns#"
   xmlns:rdf="http://www.w3.org/1999/02/22-rdf-syntax-ns#"
   xmlns:svg="http://www.w3.org/2000/svg"
   xmlns="http://www.w3.org/2000/svg"
   xmlns:sodipodi="http://sodipodi.sourceforge.net/DTD/sodipodi-0.dtd"
   xmlns:inkscape="http://www.inkscape.org/namespaces/inkscape"
   viewBox="0 0 155.836 153.87866"
   version="1.1"
   id="svg114"
   sodipodi:docname="logo.svg"
   width="155.836"
   height="153.87866"
   inkscape:version="1.0.1 (3bc2e813f5, 2020-09-07)">
  <metadata
     id="metadata118">
    <rdf:RDF>
      <cc:Work
         rdf:about="">
        <dc:format>image/svg+xml</dc:format>
        <dc:type
           rdf:resource="http://purl.org/dc/dcmitype/StillImage" />
        <dc:title>logo STEAM</dc:title>
      </cc:Work>
    </rdf:RDF>
  </metadata>
  <sodipodi:namedview
     pagecolor="#ffffff"
     bordercolor="#666666"
     borderopacity="1"
     objecttolerance="10"
     gridtolerance="10"
     guidetolerance="10"
     inkscape:pageopacity="0"
     inkscape:pageshadow="2"
     inkscape:window-width="1848"
     inkscape:window-height="1016"
     id="namedview116"
     showgrid="false"
     fit-margin-top="5"
     fit-margin-left="5"
     fit-margin-bottom="5"
     fit-margin-right="5"
     lock-margins="true"
     inkscape:zoom="3.3081103"
     inkscape:cx="150.55157"
     inkscape:cy="126.50258"
     inkscape:window-x="72"
     inkscape:window-y="27"
     inkscape:window-maximized="1"
     inkscape:current-layer="svg114" />
  <defs
     id="defs4">
    <style
       id="style2">.cls-1{fill:none;}.cls-2{fill:#fdc400;}.cls-3{fill:#e9407f;}.cls-4{fill:#62549f;}.cls-11,.cls-5{fill:#41bdd6;}.cls-6{fill:#61b22f;}.cls-7{font-size:31.16px;fill:#575756;font-family:Calibri;}.cls-8{letter-spacing:-0.01em;}.cls-9{letter-spacing:0.03em;}.cls-10{letter-spacing:-0.06em;}.cls-11{font-size:50.11px;font-family:ArialRoundedMTBold, Arial Rounded MT Bold;letter-spacing:0.07em;}</style>
  </defs>
  <title
     id="title6">logo STEAM</title>
  <g
     id="g1094"
     transform="matrix(2,0,0,2,4.8822334,-3.2234505)">
    <path
       class="cls-1"
       d="M 17.55,30.16 A 24.13,24.13 0 0 1 27,27.58 24.2,24.2 0 0 1 32.74,19.69"
       id="path8" />
    <path
       class="cls-1"
       d="m 41.13,19.9 a 24,24 0 0 1 5.36,8.16 24.05,24.05 0 0 1 9.28,3"
       id="path10" />
    <path
       class="cls-1"
       d="M 45.13,61.32 A 24.17,24.17 0 0 1 36,57.87 a 24.17,24.17 0 0 1 -9.29,3"
       id="path12" />
    <path
       class="cls-1"
       d="M 9.79,56.31 A 19.25,19.25 0 0 0 28.86,70.88"
       id="path14" />
    <path
       class="cls-1"
       d="m 13.86,20.6 a 19.25,19.25 0 0 0 -8,22.64"
       id="path16" />
    <path
       class="cls-1"
       d="M 20,55.76 A 24.26,24.26 0 0 1 20.48,46 24.24,24.24 0 0 1 14.75,38.09"
       id="path18" />
    <path
       class="cls-1"
       d="m 48.17,37.75 a 23.86,23.86 0 0 1 2.27,4 19.18,19.18 0 0 0 4,-5.84 19.22,19.22 0 0 0 -6.5,-2.72 24,24 0 0 1 0.23,4.56 z"
       id="path20" />
    <path
       class="cls-1"
       d="m 25.32,32.62 a 19.23,19.23 0 0 0 -6.63,2.38 19.42,19.42 0 0 0 3.66,6 24.36,24.36 0 0 1 2.47,-3.87 23.85,23.85 0 0 1 0.5,-4.51 z"
       id="path22" />
    <path
       class="cls-1"
       d="M 28.94,51 A 23.15,23.15 0 0 1 24.76,49.11 19.46,19.46 0 0 0 25,56.17 19.09,19.09 0 0 0 31.86,54.55 23.91,23.91 0 0 1 28.94,51 Z"
       id="path24" />
    <path
       class="cls-1"
       d="m 40.29,54.76 a 19.34,19.34 0 0 0 6.77,2 19.24,19.24 0 0 0 0.59,-7 23.83,23.83 0 0 1 -4.27,1.68 23.83,23.83 0 0 1 -3.09,3.32 z"
       id="path26" />
    <path
       class="cls-1"
       d="m 41.19,28.05 a 19.11,19.11 0 0 0 -4.33,-5.56 19.08,19.08 0 0 0 -4.6,5.34 24,24 0 0 1 4.44,1.17 23.43,23.43 0 0 1 4.49,-0.95 z"
       id="path28" />
    <path
       class="cls-1"
       d="m 58.18,39.16 a 24.43,24.43 0 0 1 -6.1,7.62 24.3,24.3 0 0 1 0,9.76"
       id="path30" />
    <path
       class="cls-1"
       d="m 66.78,44.72 a 19.26,19.26 0 0 0 -6.86,-23"
       id="path32" />
    <path
       class="cls-1"
       d="m 49.08,13.44 a 19.25,19.25 0 0 0 -24,-0.58"
       id="path34" />
    <path
       class="cls-1"
       d="M 43.23,39.22 A 19.72,19.72 0 0 0 39.8,36 a 19.18,19.18 0 0 0 -3.23,-1.89 19.58,19.58 0 0 0 -6.89,4.75 19.52,19.52 0 0 0 0.9,4.59 18.94,18.94 0 0 0 1.5,3.44 19.65,19.65 0 0 0 4.64,0.56 19.18,19.18 0 0 0 3.73,-0.36 19.1,19.1 0 0 0 2,-4.24 19.85,19.85 0 0 0 0.78,-3.63 z"
       id="path36" />
    <path
       class="cls-1"
       d="M 42.49,71.21 A 19.25,19.25 0 0 0 62.25,57.58"
       id="path38" />
    <path
       class="cls-2"
       d="m 55.77,31.09 a 23.77,23.77 0 0 1 4.29,3.11"
       id="path40" />
    <path
       class="cls-2"
       d="m 43.38,51.36 a 23.83,23.83 0 0 0 4.27,-1.68 20,20 0 0 0 -1,-4.38 24.11,24.11 0 0 1 -3.27,6.06 z"
       id="path42" />
    <path
       class="cls-2"
       d="m 13.12,33.06 a 24,24 0 0 1 4.43,-2.9"
       id="path44" />
    <path
       class="cls-3"
       d="M 21.41,60.87 A 23.92,23.92 0 0 1 20,55.76"
       id="path46" />
    <path
       class="cls-3"
       d="M 32.71,19.69 A 23.74,23.74 0 0 1 37,16.58"
       id="path48" />
    <path
       class="cls-3"
       d="m 48.17,37.75 a 24,24 0 0 0 -0.28,-4.58 19.71,19.71 0 0 0 -4.47,-0.44 24,24 0 0 1 4.75,5.02 z"
       id="path50" />
    <path
       class="cls-3"
       d="m 17.44,13.77 a 24.1,24.1 0 0 0 -13,37 24,24 0 0 1 1.5,-7.56 19.25,19.25 0 0 1 8,-22.64 19.55,19.55 0 0 1 6.43,-2.57 19.51,19.51 0 0 1 4.72,-5.16 23.87,23.87 0 0 0 -7.65,0.93 z"
       id="path52" />
    <path
       class="cls-4"
       d="m 14.75,38.1 a 24,24 0 0 1 -1.63,-5"
       id="path54" />
    <path
       class="cls-4"
       d="M 50.42,61.58 A 24.52,24.52 0 0 1 45.13,61.32"
       id="path56" />
    <path
       class="cls-4"
       d="M 32.26,27.83 A 18.83,18.83 0 0 0 30.47,32 23.87,23.87 0 0 1 36.7,29 24,24 0 0 0 32.26,27.83 Z"
       id="path58" />
    <path
       class="cls-4"
       d="m 17.55,30.16 a 24,24 0 0 0 -4.43,2.9 24,24 0 0 0 1.63,5 19.6,19.6 0 0 1 3.94,-3.06 19.23,19.23 0 0 1 6.63,-2.4 24.58,24.58 0 0 1 1.65,-5 24.13,24.13 0 0 0 -9.42,2.56 z"
       id="path60" />
    <path
       class="cls-4"
       d="M 28.86,70.88 A 19.25,19.25 0 0 1 9.79,56.31 v 0 A 19.29,19.29 0 0 1 9.35,49.31 19.49,19.49 0 0 1 5.89,43.22 24.23,24.23 0 0 0 4.4,50.8 v 0 a 24.1,24.1 0 0 0 31.19,23.84 23.9,23.9 0 0 1 -6.73,-3.76 z"
       id="path62" />
    <path
       class="cls-4"
       d="m 52.08,46.78 a 24.62,24.62 0 0 0 -1.64,-5.05 24.06,24.06 0 0 0 -7,-9 h -0.52 a 19.25,19.25 0 0 0 -6.33,1.39 19.18,19.18 0 0 1 3.21,1.88 19.72,19.72 0 0 1 3.43,3.19 19.25,19.25 0 0 1 3.27,5.59 l 0.18,0.49 a 20,20 0 0 1 1,4.38 19.24,19.24 0 0 1 -0.59,7 19.1,19.1 0 0 0 5,-0.17 24.3,24.3 0 0 0 -0.01,-9.7 z"
       id="path64" />
    <path
       class="cls-5"
       d="m 24.82,37.18 a 24.36,24.36 0 0 0 -2.47,3.87 19,19 0 0 0 3.36,3 23.73,23.73 0 0 1 -0.89,-6.87 z"
       id="path66" />
    <path
       class="cls-5"
       d="m 26.71,60.87 a 24.08,24.08 0 0 1 -5.3,0"
       id="path68" />
    <path
       class="cls-5"
       d="m 60.06,34.2 a 24.27,24.27 0 0 1 -1.88,5"
       id="path70" />
    <path
       class="cls-2"
       d="m 55.77,31.09 a 18.94,18.94 0 0 1 -1.38,4.8 19.18,19.18 0 0 1 -4,5.84 24.62,24.62 0 0 1 1.64,5.05 24.21,24.21 0 0 0 8,-12.58 23.77,23.77 0 0 0 -4.26,-3.11 z"
       id="path72" />
    <path
       class="cls-5"
       d="M 25,56.17 A 19.46,19.46 0 0 1 24.76,49.12 23.88,23.88 0 0 1 20.48,46 24.26,24.26 0 0 0 20,55.76 a 23.92,23.92 0 0 0 1.39,5.11 24.08,24.08 0 0 0 5.3,0 19.11,19.11 0 0 1 -1.69,-4.7 z"
       id="path74" />
    <path
       class="cls-5"
       d="m 62.25,57.58 a 19.28,19.28 0 0 1 -26.53,11.9 19.27,19.27 0 0 1 -6.86,1.4 24.09,24.09 0 0 0 39,-18.53 24.09,24.09 0 0 1 -5.61,5.23 z"
       id="path76" />
    <path
       class="cls-5"
       d="m 46.49,28.06 a 24.08,24.08 0 0 0 -5.3,0 23.43,23.43 0 0 0 -4.49,0.94 23.87,23.87 0 0 0 -6.23,3 l -0.15,0.49 a 19.34,19.34 0 0 0 -0.64,6.45 19.29,19.29 0 0 1 13.22,-6.19 h 0.52 a 19.71,19.71 0 0 1 4.47,0.44 19.22,19.22 0 0 1 6.5,2.72 18.94,18.94 0 0 0 1.38,-4.8 24.05,24.05 0 0 0 -9.28,-3.05 z"
       id="path78" />
    <path
       class="cls-6"
       d="m 37,16.58 a 23.85,23.85 0 0 1 4.13,3.32"
       id="path80" />
    <path
       class="cls-6"
       d="m 52.06,56.54 a 23.37,23.37 0 0 1 -1.64,5"
       id="path82" />
    <path
       class="cls-6"
       d="M 31.86,54.55 A 18.79,18.79 0 0 0 35.73,52.28 23.88,23.88 0 0 1 28.94,51 23.91,23.91 0 0 0 31.86,54.55 Z"
       id="path84" />
    <path
       class="cls-2"
       d="m 56.68,14.73 a 24.1,24.1 0 0 0 -39.24,-1 23.87,23.87 0 0 1 7.65,-0.91 19.25,19.25 0 0 1 24,0.58 19.39,19.39 0 0 1 4.47,5.39 19.44,19.44 0 0 1 6.37,2.89 24.12,24.12 0 0 0 -3.25,-6.95 z"
       id="path86" />
    <path
       class="cls-3"
       d="M 41.13,19.9 A 23.85,23.85 0 0 0 37,16.58 a 23.74,23.74 0 0 0 -4.29,3.11 19.18,19.18 0 0 1 8.48,8.36 24.08,24.08 0 0 1 5.3,0 24,24 0 0 0 -5.36,-8.15 z"
       id="path88" />
    <path
       class="cls-3"
       d="M 46.5,44.81 A 19.25,19.25 0 0 0 43.23,39.22 19.85,19.85 0 0 1 42.42,42.88 19.14,19.14 0 0 1 36.14,52 l -0.41,0.32 a 18.79,18.79 0 0 1 -3.87,2.27 19.09,19.09 0 0 1 -6.86,1.58 19.11,19.11 0 0 0 1.71,4.7 24.17,24.17 0 0 0 9.29,-3 24.55,24.55 0 0 0 4.29,-3.11 23.83,23.83 0 0 0 3.09,-3.4 24.11,24.11 0 0 0 3.3,-6.06 z"
       id="path90" />
    <path
       class="cls-6"
       d="m 47.06,56.71 a 19.34,19.34 0 0 1 -6.77,-2 24.55,24.55 0 0 1 -4.29,3.16 24.17,24.17 0 0 0 9.13,3.45 24.52,24.52 0 0 0 5.29,0.26 23.37,23.37 0 0 0 1.64,-5 19.1,19.1 0 0 1 -5,0.13 z"
       id="path92" />
    <path
       class="cls-6"
       d="m 71.81,30.08 a 24,24 0 0 0 -15.13,-15.35 24.12,24.12 0 0 1 3.24,7 19.26,19.26 0 0 1 6.86,23 19.51,19.51 0 0 1 -3.78,5.9 19.41,19.41 0 0 1 -0.78,6.95 24,24 0 0 0 9.56,-27.5 z"
       id="path94" />
    <path
       class="cls-2"
       d="m 36.72,47.48 a 19.65,19.65 0 0 1 -4.64,-0.56 19.08,19.08 0 0 1 -5.94,-2.6 l -0.43,-0.3 a 19,19 0 0 1 -3.36,-3 19.42,19.42 0 0 1 -3.66,-6 19.6,19.6 0 0 0 -3.94,3.08 24.24,24.24 0 0 0 5.73,7.9 23.88,23.88 0 0 0 4.28,3.11 23.15,23.15 0 0 0 4.18,1.89 23.88,23.88 0 0 0 6.79,1.27 l 0.41,-0.32 a 19.23,19.23 0 0 0 4.31,-4.84 19.18,19.18 0 0 1 -3.73,0.37 z"
       id="path96" />
    <path
       class="cls-6"
       d="m 32.71,19.69 a 24.2,24.2 0 0 0 -5.71,7.89 24.58,24.58 0 0 0 -1.65,5 24.13,24.13 0 0 0 0.36,11.42 l 0.43,0.3 a 19.08,19.08 0 0 0 5.94,2.6 18.94,18.94 0 0 1 -1.5,-3.44 19.15,19.15 0 0 1 -0.26,-11 l 0.15,-0.49 a 18.83,18.83 0 0 1 1.79,-4.12 19.08,19.08 0 0 1 4.6,-5.34 19.25,19.25 0 0 0 -4.15,-2.82 z"
       id="path98" />
  </g>
</svg>
