<?xml version="1.0" encoding="UTF-8" standalone="no"?>
<!-- Created with Inkscape (http://www.inkscape.org/) -->

<svg
   xmlns:dc="http://purl.org/dc/elements/1.1/"
   xmlns:cc="http://creativecommons.org/ns#"
   xmlns:rdf="http://www.w3.org/1999/02/22-rdf-syntax-ns#"
   xmlns:svg="http://www.w3.org/2000/svg"
   xmlns="http://www.w3.org/2000/svg"
   xmlns:sodipodi="http://sodipodi.sourceforge.net/DTD/sodipodi-0.dtd"
   xmlns:inkscape="http://www.inkscape.org/namespaces/inkscape"
   width="59"
   height="59"
   viewBox="0 0 15.610416 15.610417"
   version="1.1"
   id="svg8"
   inkscape:version="0.92.2 (5c3e80d, 2017-08-06)"
   sodipodi:docname="logo.square.svg">
  <defs
     id="defs2" />
  <sodipodi:namedview
     id="base"
     pagecolor="#ffffff"
     bordercolor="#666666"
     borderopacity="1.0"
     inkscape:pageopacity="0.0"
     inkscape:pageshadow="2"
     inkscape:zoom="4.9574219"
     inkscape:cx="230.90873"
     inkscape:cy="16.15234"
     inkscape:document-units="mm"
     inkscape:current-layer="g1156"
     showgrid="false"
     inkscape:pagecheckerboard="true"
     fit-margin-top="0"
     fit-margin-left="0"
     fit-margin-right="0"
     fit-margin-bottom="0"
     units="px"
     inkscape:window-width="3706"
     inkscape:window-height="2049"
     inkscape:window-x="134"
     inkscape:window-y="55"
     inkscape:window-maximized="1" />
  <metadata
     id="metadata5">
    <rdf:RDF>
      <cc:Work
         rdf:about="">
        <dc:format>image/svg+xml</dc:format>
        <dc:type
           rdf:resource="http://purl.org/dc/dcmitype/StillImage" />
        <dc:title></dc:title>
      </cc:Work>
    </rdf:RDF>
  </metadata>
  <g
     inkscape:label="Calque 1"
     inkscape:groupmode="layer"
     id="layer1"
     transform="translate(-78.968362,-201.87439)">
    <g
       id="g1156">
      <path
         style="fill:#ffffff;fill-opacity:1;stroke-width:0.01620178"
         d="m 86.194305,215.09571 c -0.17939,-0.0415 -0.31756,-0.14622 -0.38646,-0.2928 -0.0477,-0.10149 -0.0384,-0.12294 0.0535,-0.12294 0.0622,0 0.0771,0.007 0.10063,0.0445 0.0949,0.15327 0.20813,0.22081 0.3701,0.22081 0.20673,0 0.33895,-0.11011 0.37215,-0.30992 0.0129,-0.0778 -0.0128,-0.0933 -0.063,-0.038 -0.0592,0.0654 -0.18676,0.10614 -0.33349,0.10648 -0.12085,1.9e-4 -0.15062,-0.006 -0.24303,-0.0498 -0.12902,-0.0614 -0.23436,-0.16382 -0.2901,-0.282 -0.036,-0.0764 -0.042,-0.11105 -0.042,-0.24302 0,-0.13735 0.005,-0.16431 0.0474,-0.25044 0.0585,-0.11919 0.15952,-0.21947 0.28123,-0.27924 0.0818,-0.0402 0.11058,-0.0455 0.24655,-0.0454 0.13536,7e-5 0.1638,0.005 0.23594,0.0433 0.0451,0.0238 0.0916,0.0547 0.10325,0.0688 0.0368,0.0444 0.0658,0.0307 0.0658,-0.0311 v -0.0567 h 0.0818 0.0818 l -0.005,0.58731 -0.005,0.58732 -0.0439,0.0832 c -0.10858,0.20585 -0.37869,0.31742 -0.62847,0.25959 z m 0.24712,-0.56847 c 0.0991,-0.0354 0.16819,-0.0997 0.22136,-0.20607 0.10953,-0.21919 0.0344,-0.46213 -0.17581,-0.56875 -0.27645,-0.1402 -0.58288,0.0586 -0.58394,0.37889 -9.6e-4,0.28781 0.27424,0.49019 0.53839,0.39593 z m -2.90568,0.15441 c -0.17269,-0.0553 -0.30582,-0.17877 -0.37431,-0.34729 -0.0405,-0.0997 -0.0384,-0.3092 0.004,-0.42332 0.044,-0.11768 0.1642,-0.24806 0.28503,-0.30922 0.0869,-0.044 0.10838,-0.0479 0.26468,-0.0479 0.14746,0 0.17983,0.005 0.24303,0.0383 0.0401,0.0211 0.0888,0.0528 0.10816,0.0705 0.0435,0.0399 0.0701,0.0259 0.0701,-0.0369 0,-0.0464 0.002,-0.0477 0.081,-0.0477 h 0.081 v 0.55086 0.55086 h -0.081 c -0.0789,0 -0.081,-0.001 -0.081,-0.0477 0,-0.0262 -0.007,-0.0517 -0.0146,-0.0567 -0.008,-0.005 -0.0515,0.0158 -0.0967,0.0462 -0.13607,0.0916 -0.32014,0.11405 -0.48966,0.0598 z m 0.32373,-0.15497 c 0.10738,-0.0379 0.17538,-0.10069 0.23071,-0.21308 0.0455,-0.0924 0.05,-0.11447 0.0426,-0.20694 -0.0142,-0.1766 -0.10967,-0.31128 -0.26744,-0.3772 -0.0435,-0.0182 -0.0939,-0.0232 -0.17803,-0.0178 -0.15328,0.01 -0.24976,0.0662 -0.32335,0.18892 -0.20697,0.34513 0.12018,0.75853 0.49548,0.62612 z m 1.03047,0.15658 c -0.11839,-0.0409 -0.19513,-0.10677 -0.24656,-0.21148 -0.0449,-0.0915 -0.045,-0.0917 -0.05,-0.49254 l -0.005,-0.40099 h 0.0803 0.0803 l 0.006,0.36859 c 0.006,0.35445 0.007,0.37169 0.0463,0.4496 0.0554,0.11102 0.14532,0.15835 0.28558,0.15025 0.12911,-0.007 0.214,-0.0613 0.26725,-0.16944 0.0363,-0.0737 0.0387,-0.098 0.044,-0.43851 l 0.006,-0.36049 h 0.0794 0.0795 v 0.55174 0.55175 l -0.077,-0.005 c -0.0657,-0.004 -0.0777,-0.0103 -0.0821,-0.0414 -0.007,-0.0462 -0.0165,-0.0457 -0.0842,0.004 -0.10479,0.0773 -0.28026,0.0952 -0.42924,0.0436 z m 4.413,0.005 c -0.16764,-0.054 -0.32641,-0.20827 -0.38015,-0.36943 -0.0377,-0.11313 -0.0255,-0.33442 0.024,-0.43607 0.0591,-0.12125 0.15356,-0.21624 0.27379,-0.27538 0.0981,-0.0483 0.12195,-0.0533 0.25432,-0.0532 0.12441,1e-5 0.15974,0.006 0.23835,0.0433 0.19275,0.0903 0.32561,0.28539 0.32777,0.48121 l 10e-4,0.10739 -0.4745,0.004 c -0.52357,0.005 -0.51406,0.003 -0.47155,0.10523 0.0336,0.0811 0.12785,0.1753 0.21697,0.21689 0.16011,0.0747 0.34714,0.0313 0.4667,-0.10841 0.0329,-0.0385 0.0599,-0.0759 0.0599,-0.0832 0,-0.0188 0.15806,-0.0166 0.16978,0.002 0.0163,0.0264 -0.055,0.14626 -0.13107,0.22018 -0.10829,0.10525 -0.22194,0.15463 -0.37402,0.16252 -0.0842,0.004 -0.15149,-0.002 -0.20145,-0.0176 z m 0.55773,-0.66634 c 0.0195,-0.0195 -0.0392,-0.12803 -0.10603,-0.19633 -0.0891,-0.091 -0.17607,-0.12326 -0.30946,-0.11476 -0.14028,0.009 -0.24198,0.0709 -0.3143,0.1915 -0.029,0.0483 -0.0527,0.0972 -0.0527,0.10878 0,0.0166 0.081,0.021 0.38615,0.021 0.21237,0 0.39071,-0.005 0.3963,-0.0102 z m 2.66244,0.66412 c -0.15882,-0.0488 -0.2885,-0.16561 -0.36401,-0.32798 -0.0352,-0.0757 -0.0423,-0.1143 -0.0423,-0.22877 0,-0.11504 0.007,-0.15296 0.0431,-0.23035 0.0568,-0.12213 0.16816,-0.23882 0.28387,-0.29739 0.0839,-0.0425 0.10953,-0.0474 0.24752,-0.0474 0.18658,0 0.26487,0.0304 0.39494,0.15343 0.11231,0.10621 0.17701,0.24409 0.17889,0.38118 l 0.001,0.0972 -0.48408,0.004 -0.48408,0.004 0.01,0.0587 c 0.0279,0.17172 0.23293,0.31231 0.42641,0.29234 0.1173,-0.0121 0.21104,-0.0674 0.28712,-0.1694 0.0562,-0.0754 0.07,-0.0849 0.12263,-0.0849 0.0326,0 0.0676,0.008 0.0778,0.0185 0.0413,0.0413 -0.10873,0.24458 -0.24013,0.32548 -0.11905,0.0733 -0.31453,0.0949 -0.45849,0.0507 z m 0.55695,-0.6789 c 0,-0.0479 -0.0642,-0.1502 -0.12893,-0.20564 -0.11776,-0.1008 -0.28694,-0.12241 -0.43003,-0.0549 -0.0865,0.0408 -0.13016,0.0815 -0.18456,0.1721 -0.0701,0.11676 -0.0806,0.11341 0.35468,0.11341 0.33931,0 0.38884,-0.003 0.38884,-0.0249 z m 0.74992,0.68191 c -0.16578,-0.0518 -0.30006,-0.17041 -0.37473,-0.33099 -0.0352,-0.0757 -0.0423,-0.1143 -0.0423,-0.22877 0,-0.16735 0.0446,-0.27863 0.16219,-0.40429 0.18706,-0.19999 0.51472,-0.23898 0.73914,-0.088 0.0448,0.0302 0.0844,0.0548 0.0879,0.0548 0.004,0 0.007,-0.1039 0.007,-0.23088 1.6e-4,-0.12698 0.006,-0.24046 0.0138,-0.25218 0.009,-0.0138 0.0387,-0.0195 0.0848,-0.0162 l 0.0713,0.005 v 0.73718 0.73719 h -0.081 c -0.0795,0 -0.0811,-9.6e-4 -0.0861,-0.0527 -0.003,-0.029 -0.008,-0.0527 -0.0116,-0.0527 -0.004,0 -0.0414,0.0221 -0.084,0.0492 -0.14582,0.0925 -0.33365,0.12076 -0.48603,0.0731 z m 0.30942,-0.15842 c 0.10199,-0.0305 0.2275,-0.1613 0.25958,-0.27061 0.0142,-0.0484 0.0258,-0.10723 0.0258,-0.13073 0,-0.10564 -0.0506,-0.21764 -0.1357,-0.30068 -0.1006,-0.0981 -0.19035,-0.12929 -0.33455,-0.11621 -0.34961,0.0317 -0.50031,0.46449 -0.24919,0.71561 0.1114,0.1114 0.27505,0.15009 0.43403,0.10262 z m -12.69267,0.14372 c -0.40742,-0.0878 -0.56828,-0.56617 -0.30033,-0.89317 0.0303,-0.0369 0.10122,-0.0922 0.15766,-0.12281 0.0953,-0.0517 0.11305,-0.0556 0.24843,-0.0556 0.12392,0 0.15958,0.006 0.23745,0.043 0.10899,0.0511 0.2076,0.14783 0.25629,0.2514 0.0365,0.0776 0.0708,0.24239 0.0557,0.26692 -0.005,0.008 -0.21982,0.0139 -0.47799,0.0139 -0.53068,0 -0.50933,-0.006 -0.46,0.12618 0.0562,0.1503 0.23903,0.27887 0.39666,0.27887 0.096,0 0.20883,-0.0494 0.29703,-0.12997 0.0662,-0.0605 0.10082,-0.0807 0.13863,-0.0807 0.0577,0 0.0586,0.002 0.0271,0.0628 -0.03,0.058 -0.13639,0.15391 -0.21551,0.19428 -0.0513,0.0262 -0.22893,0.0706 -0.26242,0.0656 -0.005,-7.6e-4 -0.0495,-0.01 -0.0987,-0.0206 z m 0.5288,-0.61678 c 0.0136,-0.0353 -0.0467,-0.15701 -0.10819,-0.2185 -0.12844,-0.12845 -0.32051,-0.16586 -0.47686,-0.0929 -0.13669,0.0638 -0.28042,0.2554 -0.23375,0.31163 0.0283,0.0341 0.80572,0.0339 0.8188,-1.9e-4 z m 0.54602,0.60808 c -0.0637,-0.04 -0.0906,-0.12161 -0.0676,-0.20506 0.0346,-0.1255 0.20283,-0.15795 0.29339,-0.0566 0.13352,0.14942 -0.0555,0.3685 -0.22583,0.26167 z m 4.58005,-0.53636 v -0.55086 h 0.0752 c 0.05,0 0.0815,0.009 0.094,0.0257 0.0169,0.0232 0.0259,0.022 0.0899,-0.0114 0.15001,-0.0782 0.35184,-0.0527 0.4849,0.0612 l 0.0681,0.0583 0.0436,-0.0408 c 0.16707,-0.15649 0.44561,-0.16452 0.61703,-0.0178 0.13367,0.11442 0.13875,0.13586 0.14448,0.60933 l 0.005,0.4172 h -0.0805 -0.0805 l -0.006,-0.38479 c -0.005,-0.36992 -0.007,-0.38739 -0.0439,-0.45174 -0.0985,-0.17197 -0.33903,-0.18355 -0.45855,-0.0221 -0.0457,0.0617 -0.0618,0.20414 -0.0619,0.54672 l -10e-5,0.31189 h -0.0797 -0.0797 l -0.005,-0.38479 c -0.005,-0.3757 -0.006,-0.38646 -0.0457,-0.45533 -0.097,-0.16946 -0.33757,-0.17921 -0.45654,-0.0185 -0.0457,0.0617 -0.0618,0.20414 -0.0619,0.54672 l -1e-4,0.31189 h -0.081 -0.081 z m 3.14315,0 v -0.55086 h 0.0792 c 0.0706,0 0.0803,0.004 0.0892,0.0398 l 0.01,0.0398 0.0835,-0.0519 c 0.0789,-0.049 0.0922,-0.0519 0.23886,-0.0519 0.17766,4e-5 0.2419,0.0247 0.34393,0.13224 0.12474,0.13142 0.147,0.23768 0.14033,0.6697 l -0.005,0.31594 h -0.081 -0.081 l -0.008,-0.36454 c -0.009,-0.41145 -0.0184,-0.44863 -0.13517,-0.54172 -0.0565,-0.0451 -0.0731,-0.0496 -0.1794,-0.0496 -0.148,0 -0.22901,0.0467 -0.28644,0.165 -0.0355,0.0731 -0.0383,0.10095 -0.0444,0.43852 l -0.007,0.36049 h -0.0791 -0.0791 z m 1.3725,0.54081 c -0.006,-0.006 -0.0115,-0.21798 -0.0115,-0.47029 v -0.45874 l -0.0365,-0.008 c -0.02,-0.005 -0.0693,-0.0101 -0.10937,-0.0125 l -0.0729,-0.004 v -0.0648 -0.0648 l 0.0729,-0.004 c 0.15253,-0.009 0.14419,0.002 0.14934,-0.20247 l 0.005,-0.1821 h 0.081 0.081 l 0.005,0.1821 c 0.005,0.20688 -0.005,0.19451 0.16554,0.20255 l 0.0891,0.004 v 0.0648 0.0648 l -0.0891,0.004 c -0.049,0.002 -0.10541,0.008 -0.12532,0.0124 l -0.0362,0.008 -0.004,0.46556 -0.004,0.46555 -0.0735,0.005 c -0.0404,0.003 -0.0787,-3.8e-4 -0.0851,-0.007 z m -12.64894,-0.062 v -0.0559 l 0.0851,-0.005 0.0851,-0.005 0.004,-0.59839 c 0.003,-0.46794 -2.1e-4,-0.60121 -0.0162,-0.61137 -0.0112,-0.007 -0.0474,-0.0131 -0.0802,-0.0132 -0.0685,-1.9e-4 -0.0852,-0.0178 -0.0709,-0.0747 0.01,-0.0394 0.0128,-0.0401 0.15139,-0.0355 l 0.1413,0.005 0.008,0.66427 0.008,0.66427 0.077,0.005 c 0.076,0.005 0.077,0.006 0.077,0.0608 v 0.0558 h -0.23493 -0.23492 z m 0.68801,0.0387 c -0.006,-0.009 -0.006,-0.0345 -8.6e-4,-0.0558 0.008,-0.033 0.021,-0.0394 0.0866,-0.0436 l 0.0769,-0.005 v -0.41315 -0.41314 l -0.077,-0.005 c -0.0761,-0.005 -0.0769,-0.006 -0.0769,-0.0614 v -0.0565 l 0.14176,0.005 0.14177,0.005 0.008,0.46985 0.008,0.46985 0.0769,0.005 c 0.0656,0.004 0.0783,0.0106 0.0866,0.0436 0.005,0.0213 0.005,0.0464 -8.6e-4,0.0558 -0.007,0.0107 -0.095,0.0171 -0.23549,0.0171 -0.14053,0 -0.22888,-0.006 -0.2355,-0.0171 z m 0.65674,-0.0396 v -0.0567 h 0.0793 c 0.0573,0 0.082,-0.007 0.0891,-0.0256 0.0197,-0.0513 0.0109,-0.77687 -0.01,-0.79742 -0.0107,-0.0107 -0.0508,-0.0194 -0.0891,-0.0194 -0.0688,0 -0.0697,-7.7e-4 -0.0697,-0.0567 0,-0.0563 4.6e-4,-0.0567 0.0723,-0.0567 0.0818,0 0.10588,-0.0262 0.10588,-0.11534 0,-0.13211 0.11437,-0.25446 0.26201,-0.28029 0.067,-0.0117 0.0862,0.005 0.0719,0.0623 -0.006,0.0257 -0.0252,0.0407 -0.0593,0.0475 -0.0687,0.0137 -0.14021,0.09 -0.15419,0.16449 -0.0161,0.0856 0.006,0.11221 0.0959,0.11814 0.0741,0.005 0.0753,0.006 0.0753,0.0608 0,0.0551 -8.8e-4,0.0558 -0.0709,0.0558 -0.0404,0 -0.0789,0.01 -0.0894,0.0223 -0.013,0.0157 -0.0172,0.13945 -0.0141,0.4172 l 0.004,0.39493 0.081,0.008 c 0.0776,0.008 0.0812,0.0103 0.0861,0.0608 l 0.005,0.0527 h -0.23595 -0.23595 z m -0.51149,-1.26085 c -0.005,-0.0129 -0.007,-0.0553 -0.004,-0.0942 0.005,-0.069 0.006,-0.0707 0.0618,-0.0707 h 0.0567 v 0.0891 c 0,0.0887 -2.3e-4,0.0891 -0.0528,0.0942 -0.0348,0.003 -0.0558,-0.003 -0.0618,-0.0184 z m 5.67175,-1.35574 c -0.0154,-0.025 0.004,-0.046 0.0781,-0.0835 0.20469,-0.10408 0.44822,-0.3179 0.61531,-0.54025 0.0536,-0.0713 0.13601,-0.20981 0.1832,-0.30783 0.27109,-0.56312 0.26707,-1.0952 -0.0124,-1.64019 -0.12413,-0.24207 -0.18544,-0.31603 -0.49939,-0.60242 -0.11152,-0.10174 -0.51343,-0.47145 -0.89312,-0.82158 -0.60019,-0.55346 -0.69488,-0.64713 -0.72503,-0.71722 -0.0453,-0.10534 -0.0438,-0.17153 0.006,-0.27213 0.0452,-0.0906 0.12782,-0.15802 0.22819,-0.18598 0.0849,-0.0237 5.22198,-0.002 5.25153,0.0226 0.0374,0.0306 0.0208,0.10939 -0.0791,0.37355 -0.095,0.2514 -0.48914,1.19876 -0.71934,1.72906 -0.06,0.13812 -0.20704,0.49867 -0.32685,0.80121 -0.11981,0.30255 -0.27492,0.68532 -0.34468,0.8506 -0.0698,0.16528 -0.21568,0.51536 -0.32426,0.77795 -0.10858,0.26259 -0.21141,0.49709 -0.22851,0.52112 -0.0171,0.024 -0.0625,0.0589 -0.10091,0.0775 -0.0685,0.0331 -0.089,0.0338 -1.08445,0.0338 -0.65896,0 -1.01815,-0.006 -1.02466,-0.0162 z m 3.75227,-0.0147 c -0.0187,-0.0187 -0.034,-0.0539 -0.034,-0.0782 0,-0.0506 0.47387,-1.2117 0.92416,-2.26448 0.1677,-0.39208 0.42878,-1.02273 0.58017,-1.40145 0.34178,-0.85498 0.52571,-1.2891 0.5642,-1.33166 0.0163,-0.018 0.0567,-0.0465 0.0897,-0.0634 0.0564,-0.0288 0.10584,-0.0307 0.79537,-0.0307 0.4044,0 0.83549,0.005 0.95798,0.0107 0.23457,0.0113 0.26846,0.0227 0.26846,0.0908 0,0.0484 -0.54935,1.41446 -0.88763,2.20728 -0.15588,0.36534 -0.37967,0.90122 -0.4973,1.19083 -0.11764,0.2896 -0.23431,0.56955 -0.25927,0.6221 -0.19725,0.41521 -0.61173,0.78595 -1.06362,0.95135 -0.28412,0.104 -0.36385,0.11482 -0.90767,0.12319 -0.48773,0.007 -0.49727,0.007 -0.53061,-0.0263 z m -9.30111,-1.3994 c -0.0923,-0.047 -0.0888,-0.0616 0.16152,-0.67065 0.12757,-0.31036 0.36261,-0.86686 0.52231,-1.23666 0.1597,-0.36981 0.42028,-0.99317 0.57907,-1.38526 0.79775,-1.96982 0.83667,-2.05829 0.99897,-2.27106 0.27368,-0.35877 0.65875,-0.60294 1.14024,-0.72301 0.1373,-0.0343 0.14656,-0.0344 3.06214,-0.0402 1.60843,-0.003 4.06398,-7.7e-4 5.45679,0.005 2.74271,0.0122 2.57929,0.006 2.57929,0.0961 0,0.0694 -0.35387,0.93665 -0.39842,0.97642 l -0.0408,0.0365 h -4.7725 c -5.12707,0 -4.92029,-0.003 -5.20656,0.0789 -0.47487,0.13612 -0.85327,0.44833 -1.07274,0.88508 -0.1379,0.27442 -0.19824,0.57221 -0.18549,0.91541 0.0132,0.35449 0.0819,0.59023 0.24601,0.84394 0.10245,0.15837 0.17124,0.22842 0.72074,0.73389 1.20099,1.10476 1.32215,1.22176 1.36456,1.31764 0.0245,0.0553 0.031,0.0978 0.026,0.16739 -0.008,0.11584 -0.0604,0.19044 -0.17054,0.24469 l -0.0774,0.0381 -2.44647,0.004 c -1.94712,0.003 -2.45468,-1.9e-4 -2.48671,-0.0165 z"
         id="path1158"
         inkscape:connector-curvature="0" />
    </g>
  </g>
</svg>
