<?xml version="1.0" encoding="UTF-8" standalone="no"?>
<!-- Created with Inkscape (http://www.inkscape.org/) -->

<svg
   xmlns:dc="http://purl.org/dc/elements/1.1/"
   xmlns:cc="http://creativecommons.org/ns#"
   xmlns:rdf="http://www.w3.org/1999/02/22-rdf-syntax-ns#"
   xmlns:svg="http://www.w3.org/2000/svg"
   xmlns="http://www.w3.org/2000/svg"
   xmlns:sodipodi="http://sodipodi.sourceforge.net/DTD/sodipodi-0.dtd"
   xmlns:inkscape="http://www.inkscape.org/namespaces/inkscape"
   width="100"
   height="59"
   viewBox="0 0 26.458319 15.610417"
   version="1.1"
   id="svg8"
   inkscape:version="0.92.2 (5c3e80d, 2017-08-06)"
   sodipodi:docname="logo.svg">
  <defs
     id="defs2" />
  <sodipodi:namedview
     id="base"
     pagecolor="#ffffff"
     bordercolor="#666666"
     borderopacity="1.0"
     inkscape:pageopacity="0.0"
     inkscape:pageshadow="2"
     inkscape:zoom="8.7771541"
     inkscape:cx="115.98276"
     inkscape:cy="26.234121"
     inkscape:document-units="mm"
     inkscape:current-layer="g1156"
     showgrid="false"
     inkscape:pagecheckerboard="true"
     fit-margin-top="0"
     fit-margin-left="0"
     fit-margin-right="0"
     fit-margin-bottom="0"
     units="px"
     inkscape:window-width="3706"
     inkscape:window-height="2049"
     inkscape:window-x="134"
     inkscape:window-y="55"
     inkscape:window-maximized="1" />
  <metadata
     id="metadata5">
    <rdf:RDF>
      <cc:Work
         rdf:about="">
        <dc:format>image/svg+xml</dc:format>
        <dc:type
           rdf:resource="http://purl.org/dc/dcmitype/StillImage" />
        <dc:title></dc:title>
      </cc:Work>
    </rdf:RDF>
  </metadata>
  <g
     inkscape:label="Calque 1"
     inkscape:groupmode="layer"
     id="layer1"
     transform="translate(-78.968362,-201.87439)">
    <g
       id="g1156">
      <path
         style="fill:#ffffff;fill-opacity:1;stroke-width:0.02786326"
         d="m 90.985054,203.01005 c -5.014114,0.01 -5.029504,0.0103 -5.265628,0.0693 -0.82805,0.20649 -1.490725,0.62631 -1.961391,1.24331 -0.279118,0.36591 -0.34594,0.51826 -1.717883,3.90589 -0.273082,0.67431 -0.720713,1.74666 -0.995359,2.38264 -0.274647,0.63597 -0.679099,1.59295 -0.89849,2.1267 -0.430491,1.04742 -0.436901,1.07272 -0.278167,1.15355 v -9.1e-4 c 0.05508,0.028 0.927899,0.0336 4.27649,0.0284 l 4.208059,-0.007 0.132418,-0.0649 c 0.189415,-0.0933 0.279517,-0.22204 0.293275,-0.42125 0.0086,-0.11968 -0.0023,-0.19284 -0.04444,-0.28795 -0.07294,-0.16489 -0.281671,-0.36629 -2.347093,-2.26622 -0.945011,-0.86929 -1.062677,-0.98961 -1.238866,-1.26197 -0.282231,-0.43632 -0.400327,-0.84163 -0.423028,-1.45127 -0.02193,-0.59022 0.08189,-1.10197 0.319048,-1.57391 0.377437,-0.75111 1.027415,-1.28827 1.844081,-1.52237 0.492317,-0.14085 0.137318,-0.13597 8.954677,-0.13597 h 8.207273 l 0.0702,-0.0622 c 0.0766,-0.0684 0.6852,-1.56032 0.6852,-1.67967 0,-0.15495 0.28125,-0.14432 -4.43557,-0.1653 -2.395313,-0.01 -6.618698,-0.0141 -9.384821,-0.009 z m 9.900266,4.39646 c -1.185827,0 -1.270733,0.004 -1.367727,0.0533 -0.05675,0.0291 -0.126604,0.0775 -0.154637,0.10842 -0.06619,0.0732 -0.382693,0.81985 -0.970474,2.29021 -0.260356,0.65131 -0.708733,1.73591 -0.997137,2.4102 -0.774394,1.81053 -1.589909,3.80732 -1.589909,3.89434 0,0.0418 0.0265,0.10292 0.05866,0.13508 0.05734,0.0573 0.07393,0.0574 0.912709,0.0453 0.935243,-0.0144 1.071962,-0.0335 1.560581,-0.21241 0.777145,-0.28444 1.489749,-0.92205 1.828974,-1.63612 0.0429,-0.0904 0.24382,-0.57196 0.44614,-1.07001 0.20229,-0.49806 0.58686,-1.41929 0.85494,-2.04759 0.58176,-1.36347 1.52681,-3.71246 1.52681,-3.7957 0,-0.11712 -0.0578,-0.13698 -0.46124,-0.15641 -0.21066,-0.01 -0.9522,-0.0187 -1.64768,-0.0187 z m -11.761232,0.006 c -0.849568,0.002 -1.428987,0.007 -1.465489,0.0169 -0.172613,0.0481 -0.315078,0.16413 -0.392811,0.31994 -0.08564,0.17301 -0.08768,0.28719 -0.0098,0.46835 0.05185,0.12054 0.214679,0.28171 1.246865,1.23353 0.652978,0.60214 1.343909,1.23809 1.535697,1.41306 0.539921,0.49252 0.645023,0.61905 0.858497,1.03535 0.480623,0.93725 0.487541,1.85234 0.02133,2.82078 -0.08116,0.16857 -0.222426,0.40705 -0.314605,0.52967 -0.287356,0.38239 -0.706439,0.74971 -1.058458,0.9287 -0.127435,0.0645 -0.16068,0.10098 -0.134195,0.14398 0.01235,0.0175 0.629264,0.0284 1.761429,0.0284 1.711941,0 1.747606,-0.002 1.865411,-0.0587 0.06606,-0.032 0.14389,-0.092 0.173298,-0.13331 0.02941,-0.0413 0.20608,-0.44423 0.392812,-0.89582 0.186732,-0.45159 0.437184,-1.05416 0.557223,-1.3384 0.119971,-0.28425 0.386727,-0.94251 0.592772,-1.46283 0.206045,-0.52029 0.45937,-1.13997 0.562556,-1.3775 0.39589,-0.91199 1.073711,-2.54129 1.237089,-2.97364 0.171805,-0.45429 0.200293,-0.58991 0.135973,-0.64254 -0.03811,-0.0317 -5.016915,-0.0607 -7.565618,-0.056 z"
         id="path1158"
         inkscape:connector-curvature="0" />
    </g>
  </g>
</svg>
